<?xml version="1.0" encoding="utf-8"?>
<!-- Generator: Adobe Illustrator 23.0.1, SVG Export Plug-In . SVG Version: 6.00 Build 0)  -->
<svg version="1.1" id="レイヤー_1" xmlns="http://www.w3.org/2000/svg" xmlns:xlink="http://www.w3.org/1999/xlink" x="0px" y="0px" viewBox="0 0 100 100" style="enable-background:new 0 0 100 100;" xml:space="preserve">
    <style type="text/css">
	.st0{fill-rule:evenodd;clip-rule:evenodd;fill:#41C9B4;}
</style>
    <title>normal/logo_symbol</title>
    <desc>Created with Sketch.</desc>
    <g>
        <path id="Shape" class="st0" d="M39.6,33.9v-7.6c0-1.4,0.1-1.9,0.3-2.6c0.6-2,2.5-3.4,4.8-3.4s4.2,1.5,4.8,3.4
		c0.2,0.7,0.3,1.2,0.3,2.6V38c0,0.7,0,1.4-0.1,2.1c-0.4,1.8-2,3.4-3.8,3.8C45.2,44,44.4,44,43.7,44H31.9c-1.4,0-1.9-0.1-2.6-0.3
		c-1.9-0.6-3.4-2.5-3.4-4.8c0-2.3,1.5-4.2,3.4-4.8c0.7-0.2,1.2-0.3,2.6-0.3H39.6z M81.7,87.3H18.3V31.6c0-0.7,0.3-1.3,0.8-1.8
		l16.5-16.4c0.5-0.5,1.1-0.8,1.8-0.8h44.4V87.3z M88.9,0.1C88.6,0,88.2,0,87.4,0H35.6c-0.6,0-1.1,0-1.5,0.1c-2.4,0.2-4.5,1.3-6.2,3
		L8.7,22.3c-1.7,1.7-2.8,3.8-3,6.1c0,0.4-0.1,1-0.1,1.5v63c0,0.8,0,1.3,0.1,1.6c0.3,2.7,2.7,5.1,5.4,5.4c0.3,0,0.8,0.1,1.6,0.1h74.7
		c0.8,0,1.3,0,1.6-0.1c2.7-0.3,5.1-2.7,5.4-5.4c0-0.3,0.1-0.8,0.1-1.6V7c0-0.8,0-1.3-0.1-1.6C94.1,2.8,91.6,0.4,88.9,0.1z" />
    </g>
</svg>